<?xml version="1.0" encoding="UTF-8" standalone="no"?>
<!-- Created with Inkscape (http://www.inkscape.org/) -->

<svg
   xmlns:dc="http://purl.org/dc/elements/1.1/"
   xmlns:cc="http://creativecommons.org/ns#"
   xmlns:rdf="http://www.w3.org/1999/02/22-rdf-syntax-ns#"
   xmlns:svg="http://www.w3.org/2000/svg"
   xmlns="http://www.w3.org/2000/svg"
   xmlns:sodipodi="http://sodipodi.sourceforge.net/DTD/sodipodi-0.dtd"
   xmlns:inkscape="http://www.inkscape.org/namespaces/inkscape"
   width="69.490074mm"
   height="69.490074mm"
   viewBox="0 0 69.490078 69.490078"
   version="1.1"
   id="svg8"
   sodipodi:docname="order.svg"
   inkscape:version="0.92.5 (2060ec1f9f, 2020-04-08)">
  <defs
     id="defs2">
    <filter
       inkscape:collect="always"
       style="color-interpolation-filters:sRGB"
       id="filter931"
       x="-0.075018525"
       width="1.1500371"
       y="-0.071467556"
       height="1.1429352">
      <feGaussianBlur
         inkscape:collect="always"
         stdDeviation="2.1558847"
         id="feGaussianBlur933" />
    </filter>
    <radialGradient
       fx="0"
       fy="0"
       cx="0"
       cy="0"
       r="1"
       gradientUnits="userSpaceOnUse"
       gradientTransform="matrix(234.21941,0,0,234.21941,-141.20098,-256.23238)"
       spreadMethod="pad"
       id="radialGradient20">
      <stop
         style="stop-opacity:1;stop-color:#f2f2f2"
         offset="0"
         id="stop14" />
      <stop
         style="stop-opacity:1;stop-color:#f2f2f2"
         offset="0.79908746"
         id="stop16" />
      <stop
         style="stop-opacity:1;stop-color:#1d1d1b"
         offset="1"
         id="stop18" />
    </radialGradient>
  </defs>
  <sodipodi:namedview
     id="base"
     pagecolor="#ffffff"
     bordercolor="#666666"
     borderopacity="1.0"
     inkscape:pageopacity="0.0"
     inkscape:pageshadow="2"
     inkscape:zoom="0.35"
     inkscape:cx="193.02338"
     inkscape:cy="45.399544"
     inkscape:document-units="mm"
     inkscape:current-layer="layer1"
     showgrid="false"
     inkscape:object-nodes="false"
     inkscape:window-width="1366"
     inkscape:window-height="715"
     inkscape:window-x="-8"
     inkscape:window-y="-8"
     inkscape:window-maximized="1">
    <sodipodi:guide
       position="693.29728,-315.91261"
       orientation="0,1186.4764"
       id="guide817"
       inkscape:locked="false" />
    <sodipodi:guide
       position="1045.5711,-315.91261"
       orientation="-734.4286,0"
       id="guide819"
       inkscape:locked="false" />
    <sodipodi:guide
       position="1007.2192,-121.59502"
       orientation="0,-1186.4764"
       id="guide821"
       inkscape:locked="false" />
    <sodipodi:guide
       position="693.29728,-121.59502"
       orientation="734.4286,0"
       id="guide823"
       inkscape:locked="false" />
  </sodipodi:namedview>
  <metadata
     id="metadata5">
    <rdf:RDF>
      <cc:Work
         rdf:about="">
        <dc:format>image/svg+xml</dc:format>
        <dc:type
           rdf:resource="http://purl.org/dc/dcmitype/StillImage" />
        <dc:title></dc:title>
      </cc:Work>
    </rdf:RDF>
  </metadata>
  <g
     inkscape:label="Layer 1"
     inkscape:groupmode="layer"
     id="layer1"
     transform="translate(987.08551,211.22601)">
    <path
       d="m -944.67778,-170.15457 h -13.7752 v -2.01331 h 13.7752 z m -19.3841,-3.13655 c -0.9288,0 -1.6848,-0.756 -1.6848,-1.68522 v -3.07269 h 6.1704 v 4.75791 z m -1.6848,-15.65945 h 6.1704 v 3.58281 h -6.1704 v -1.08585 z m 29.3031,3.58281 h -7.1099 v -3.58281 h 7.1099 z m -14.0899,7.31873 h 5.8557 v 4.75791 h -5.8557 z m -1.1236,0 v 4.75791 h -6.7959 v -4.75791 z m 0,-7.31873 h -6.7959 v -3.58281 h 6.7959 z m 1.1236,0 v -3.58281 h 5.8568 v 3.58281 z m 6.98,1.12359 h 7.1099 v 5.07154 h -7.1099 z m -1.1232,5.07154 h -5.8568 v -5.07154 h 5.8568 z m -13.7763,-5.07154 h 6.7959 v 5.07154 h -6.7959 z m -7.2937,0 h 6.1704 v 5.07154 h -6.1704 z m 27.6182,10.95305 h -5.426 v -4.75791 h 7.1109 v 3.07269 c 0,0.92922 -0.7556,1.68522 -1.6849,1.68522 z m -5.988,11.52733 c -0.9003,0 -1.633,-0.73268 -1.633,-1.63438 0,-0.90064 0.7327,-1.63372 1.633,-1.63372 0.9021,0 1.6348,0.73308 1.6348,1.63372 0,0.9017 -0.7327,1.63438 -1.6348,1.63438 z m -14.8982,0 c -0.9006,0 -1.6333,-0.73268 -1.6333,-1.63438 0,-0.90064 0.7327,-1.63372 1.6333,-1.63372 0.9007,0 1.6334,0.73308 1.6334,1.63372 0,0.9017 -0.7327,1.63438 -1.6334,1.63438 z m 20.8862,-10.40409 c 1.548,0 2.8082,-1.26047 2.8082,-2.80846 v -15.09713 h -30.4264 v -4.61327 c 0,-0.31045 -0.2515,-0.56162 -0.5616,-0.56162 h -4.7442 c -0.217,-0.50024 -0.714,-0.8502 -1.294,-0.8502 -0.7793,0 -1.4111,0.63218 -1.4111,1.41182 0,0.77893 0.6318,1.41111 1.4111,1.41111 0.58,0 1.077,-0.35031 1.294,-0.84949 h 4.1825 v 4.05165 3.61986 11.47727 c 0,1.54799 1.2602,2.80846 2.8081,2.80846 h 4.4856 v 2.01331 h -5.0853 c -1.2178,0 -2.2084,0.99024 -2.2084,2.20803 0,1.21744 0.9906,2.20945 2.2084,2.20945 h 4.2058 c -0.7859,0.48613 -1.3155,1.34796 -1.3155,2.33892 0,1.52015 1.2358,2.75763 2.7566,2.75763 1.5205,0 2.7566,-1.23748 2.7566,-2.75763 0,-0.99096 -0.5298,-1.85279 -1.3155,-2.33892 h 12.0167 c -0.7863,0.48613 -1.3159,1.34796 -1.3159,2.33892 0,1.52015 1.2372,2.75763 2.7563,2.75763 1.5208,0 2.7584,-1.23748 2.7584,-2.75763 0,-0.99096 -0.5299,-1.85279 -1.3166,-2.33892 h 6.7927 v -1.1236 h -28.7796 c -0.5983,0 -1.0851,-0.48683 -1.0851,-1.08585 0,-0.59796 0.4868,-1.08514 1.0851,-1.08514 h 28.7796 v -1.12289 h -7.6725 v -2.01331 h 5.426"
       style="fill:#000000;fill-opacity:1;fill-rule:nonzero;stroke:none;stroke-width:0.03527778"
       id="path88-1"
       inkscape:connector-curvature="0" />
  </g>
</svg>
